<svg xmlns="http://www.w3.org/2000/svg" version="1.1" xmlns:xlink="http://www.w3.org/1999/xlink" xmlns:svgjs="http://svgjs.dev/svgjs" width="1500" height="238" viewBox="0 0 1500 238"><g transform="matrix(1,0,0,1,5.268004854498713,6.243435883214275)"><svg viewBox="0 0 396 63" data-background-color="#ffffff" preserveAspectRatio="xMidYMid meet" height="238" width="1500" xmlns="http://www.w3.org/2000/svg" xmlns:xlink="http://www.w3.org/1999/xlink"><g id="tight-bounds" transform="matrix(1,0,0,1,0.2400000000000091,0.006036086524943585)"><svg viewBox="0 0 395.52 62.9879278269501" height="62.9879278269501" width="395.52"><g><svg viewBox="0 0 489.26315289564894 77.91684911755964" height="62.9879278269501" width="395.52"><g transform="matrix(1,0,0,1,93.74315289564898,4.58051294360579)"><svg viewBox="0 0 395.52 68.75582323034806" height="68.75582323034806" width="395.52"><g id="textblocktransform"><svg viewBox="0 0 395.52 68.75582323034806" height="68.75582323034806" width="395.52" id="textblock"><g><svg viewBox="0 0 395.52 68.75582323034806" height="68.75582323034806" width="395.52"><g transform="matrix(1,0,0,1,0,0)"><svg width="395.52" viewBox="0.05 -35.85 255.67999999999998 44.45" height="68.75582323034806" data-palette-color="#552ed7"><path d="M5.1 0.4L5.1 0.4Q2.7 0.4 0.05-0.3L0.05-0.3 0.35-3.15Q0.5-4.1 1.35-4.1L1.35-4.1Q1.65-4.1 2.02-4.05 2.4-4 2.65-3.9L2.65-3.9Q3.1-3.75 3.53-3.7 3.95-3.65 4.45-3.65L4.45-3.65Q8.1-3.65 9.83-5.78 11.55-7.9 11.55-12.3L11.55-12.3 11.55-35.85 16.4-35.85 16.4-12.4Q16.4-8.45 15.1-5.58 13.8-2.7 11.3-1.15 8.8 0.4 5.1 0.4ZM7.95-35.85L13.05-35.85 12.5-31.95 8.75-32.75Q8.35-32.85 8.15-33.1 7.95-33.35 7.95-33.8L7.95-33.8 7.95-35.85ZM14.95-35.85L20.05-35.85 20.05-33.8Q20.05-33.35 19.85-33.1 19.65-32.85 19.25-32.75L19.25-32.75 15.5-31.95 14.95-35.85ZM35 0.35L35 0.35Q31.35 0.35 28.62-1.3 25.9-2.95 24.4-6 22.9-9.05 22.9-13.2L22.9-13.2Q22.9-16.75 24.35-19.6 25.8-22.45 28.47-24.1 31.15-25.75 34.75-25.75L34.75-25.75Q37.9-25.75 40.25-24.35 42.6-22.95 43.92-20.43 45.25-17.9 45.25-14.4L45.25-14.4Q45.25-13.35 45.02-13 44.8-12.65 44.15-12.65L44.15-12.65 27.3-12.65Q27.3-12.5 27.3-12.33 27.3-12.15 27.3-12L27.3-12Q27.55-7.8 29.65-5.48 31.75-3.15 35.35-3.15L35.35-3.15Q36.9-3.15 38.42-3.78 39.95-4.4 41.12-5 42.3-5.6 42.8-5.6L42.8-5.6Q43.35-5.6 43.65-5.2L43.65-5.2 44.9-3.55Q43.9-2.25 42.22-1.38 40.55-0.5 38.65-0.08 36.75 0.35 35 0.35ZM27.45-15.45L27.45-15.45 41.25-15.45Q41.25-18.55 39.55-20.5 37.85-22.45 34.85-22.45L34.85-22.45Q31.6-22.45 29.75-20.6 27.9-18.75 27.45-15.45ZM56.4 0L51.95 0 51.95-25.35 54.5-25.35Q55.25-25.35 55.55-25.08 55.85-24.8 55.9-24.1L55.9-24.1 56.2-20.15Q57.5-22.8 59.4-24.3 61.3-25.8 63.9-25.8L63.9-25.8Q64.95-25.8 65.8-25.55 66.65-25.3 67.35-24.9L67.35-24.9 66.8-21.55Q66.75-21.25 66.52-21.1 66.3-20.95 66-20.95L66-20.95Q65.65-20.95 64.65-21.18 63.65-21.4 62.9-21.4L62.9-21.4Q60.6-21.4 59.02-20.05 57.45-18.7 56.4-16.15L56.4-16.15 56.4 0ZM60 0L54.9 0 55.45-3.9 59.2-3.1Q59.6-3.05 59.8-2.78 60-2.5 60-2.05L60-2.05 60 0ZM53.45 0L48.35 0 48.35-2.05Q48.35-2.5 48.55-2.78 48.75-3.05 49.15-3.1L49.15-3.1 52.9-3.9 53.45 0ZM48.35-25.35L53.45-25.35 52.9-21.45 49.15-22.25Q48.75-22.35 48.55-22.6 48.35-22.85 48.35-23.3L48.35-23.3 48.35-25.35ZM77.49 0L73.04 0 73.04-25.35 75.59-25.35Q76.34-25.35 76.64-25.08 76.94-24.8 76.99-24.1L76.99-24.1 77.29-20.15Q78.59-22.8 80.49-24.3 82.39-25.8 84.99-25.8L84.99-25.8Q86.04-25.8 86.89-25.55 87.74-25.3 88.44-24.9L88.44-24.9 87.89-21.55Q87.84-21.25 87.62-21.1 87.39-20.95 87.09-20.95L87.09-20.95Q86.74-20.95 85.74-21.18 84.74-21.4 83.99-21.4L83.99-21.4Q81.69-21.4 80.12-20.05 78.54-18.7 77.49-16.15L77.49-16.15 77.49 0ZM81.09 0L75.99 0 76.54-3.9 80.29-3.1Q80.69-3.05 80.89-2.78 81.09-2.5 81.09-2.05L81.09-2.05 81.09 0ZM74.54 0L69.44 0 69.44-2.05Q69.44-2.5 69.64-2.78 69.84-3.05 70.24-3.1L70.24-3.1 73.99-3.9 74.54 0ZM69.44-25.35L74.54-25.35 73.99-21.45 70.24-22.25Q69.84-22.35 69.64-22.6 69.44-22.85 69.44-23.3L69.44-23.3 69.44-25.35ZM100.79 8.6L97.49 8.6 102.09-1.5 91.64-25.35 95.49-25.35Q96.09-25.35 96.42-25.05 96.74-24.75 96.89-24.4L96.89-24.4 103.64-8.45Q103.79-8.1 103.99-7.45 104.19-6.8 104.34-6.25L104.34-6.25Q104.44-6.65 104.54-7 104.64-7.35 104.79-7.73 104.94-8.1 105.09-8.5L105.09-8.5 111.64-24.4Q111.79-24.8 112.17-25.08 112.54-25.35 112.94-25.35L112.94-25.35 116.49-25.35 102.39 7.5Q102.19 8 101.84 8.3 101.49 8.6 100.79 8.6L100.79 8.6ZM98.59-24.1L94.84-24.1 94.84-25.35 98.59-25.35 98.59-24.1ZM114.09-24.1L110.34-24.1 110.34-25.35 114.09-25.35 114.09-24.1ZM90.04-25.35L95.14-25.35 94.59-21.45 90.84-22.25Q90.44-22.35 90.24-22.6 90.04-22.85 90.04-23.3L90.04-23.3 90.04-25.35ZM96.29-25.35L101.39-25.35 101.39-23.3Q101.39-22.85 101.19-22.6 100.99-22.35 100.59-22.25L100.59-22.25 96.84-21.45 96.29-25.35ZM106.74-25.35L111.84-25.35 111.29-21.45 107.54-22.25Q107.14-22.35 106.94-22.6 106.74-22.85 106.74-23.3L106.74-23.3 106.74-25.35ZM112.99-25.35L118.09-25.35 118.09-23.3Q118.09-22.85 117.89-22.6 117.69-22.35 117.29-22.25L117.29-22.25 113.54-21.45 112.99-25.35ZM159.34 0L137.24 0 137.24-35.85 159.34-35.85 159.34-31.9 142.14-31.9 142.14-19.95 155.34-19.95 155.34-16.15 142.14-16.15 142.14-3.95 159.34-3.95 159.34 0ZM159.34-3.95L155.24-2.7 155.99-7.7Q156.09-8.15 156.36-8.33 156.64-8.5 157.04-8.5L157.04-8.5 159.34-8.5 159.34-3.95ZM155.99-28.15L155.24-33.15 159.34-31.9 159.34-27.35 157.04-27.35Q156.64-27.35 156.36-27.53 156.09-27.7 155.99-28.15L155.99-28.15ZM133.64-35.85L138.74-35.85 138.19-31.95 134.44-32.75Q134.04-32.85 133.84-33.1 133.64-33.35 133.64-33.8L133.64-33.8 133.64-35.85ZM138.74 0L133.64 0 133.64-2.05Q133.64-2.5 133.84-2.78 134.04-3.05 134.44-3.1L134.44-3.1 138.19-3.9 138.74 0ZM174.48 0.35L174.48 0.35Q171.18 0.35 168.66-1.28 166.13-2.9 164.71-5.85 163.28-8.8 163.28-12.7L163.28-12.7Q163.28-16.5 164.63-19.45 165.98-22.4 168.63-24.08 171.28-25.75 175.23-25.75L175.23-25.75Q176.78-25.75 178.83-25.23 180.88-24.7 182.73-23.95L182.73-23.95 182.73-21.25 180.13-21.4Q179.13-21.75 178.01-22 176.88-22.25 175.48-22.25L175.48-22.25Q172.93-22.25 171.26-21.08 169.58-19.9 168.73-17.75 167.88-15.6 167.88-12.7L167.88-12.7Q167.88-8.35 169.78-5.73 171.68-3.1 175.23-3.1L175.23-3.1Q177.18-3.1 178.43-3.73 179.68-4.35 180.48-4.98 181.28-5.6 181.73-5.6L181.73-5.6Q181.98-5.6 182.21-5.5 182.43-5.4 182.58-5.2L182.58-5.2 183.83-3.55Q182.18-1.55 179.73-0.6 177.28 0.35 174.48 0.35ZM180.03-18.15L179.53-21.9 182.73-21.25 182.73-17.35 181.08-17.35Q180.58-17.35 180.33-17.57 180.08-17.8 180.03-18.15L180.03-18.15ZM199.03-25.75L199.03-25.75Q202.83-25.75 205.51-24.13 208.18-22.5 209.63-19.55 211.08-16.6 211.08-12.7L211.08-12.7Q211.08-8.8 209.63-5.85 208.18-2.9 205.51-1.28 202.83 0.35 199.03 0.35L199.03 0.35Q195.33 0.35 192.61-1.28 189.88-2.9 188.41-5.85 186.93-8.8 186.93-12.7L186.93-12.7Q186.93-16.6 188.41-19.55 189.88-22.5 192.61-24.13 195.33-25.75 199.03-25.75ZM199.03-3.15L199.03-3.15Q202.78-3.15 204.63-5.65 206.48-8.15 206.48-12.65L206.48-12.65Q206.48-15.7 205.66-17.82 204.83-19.95 203.18-21.1 201.53-22.25 199.03-22.25L199.03-22.25Q196.48-22.25 194.81-21.08 193.13-19.9 192.33-17.75 191.53-15.6 191.53-12.65L191.53-12.65Q191.53-8.3 193.38-5.73 195.23-3.15 199.03-3.15ZM222.23 0L217.78 0 217.78-25.35 220.43-25.35Q221.43-25.35 221.63-24.4L221.63-24.4 221.98-21.8Q223.38-23.55 225.1-24.65 226.83-25.75 229.13-25.75L229.13-25.75Q231.73-25.75 233.3-24.33 234.88-22.9 235.58-20.45L235.58-20.45Q236.63-23.15 238.85-24.45 241.08-25.75 243.68-25.75L243.68-25.75Q247.73-25.75 249.93-23.18 252.13-20.6 252.13-16.15L252.13-16.15 252.13 0 247.68 0 247.68-16.15Q247.68-19.1 246.38-20.65 245.08-22.2 242.58-22.2L242.58-22.2Q240.28-22.2 238.7-20.58 237.13-18.95 237.13-16.15L237.13-16.15 237.13 0 232.68 0 232.68-16.15Q232.68-19.2 231.45-20.7 230.23-22.2 227.88-22.2L227.88-22.2Q226.23-22.2 224.83-21.3 223.43-20.4 222.23-18.9L222.23-18.9 222.23 0ZM219.28 0L214.18 0 214.18-2.05Q214.18-2.5 214.38-2.78 214.58-3.05 214.98-3.1L214.98-3.1 218.73-3.9 219.28 0ZM225.83 0L220.73 0 221.28-3.9 225.03-3.1Q225.43-3.05 225.63-2.78 225.83-2.5 225.83-2.05L225.83-2.05 225.83 0ZM240.73 0L235.63 0 236.18-3.9 239.93-3.1Q240.33-3.05 240.53-2.78 240.73-2.5 240.73-2.05L240.73-2.05 240.73 0ZM214.18-25.35L219.28-25.35 218.73-21.45 214.98-22.25Q214.58-22.35 214.38-22.6 214.18-22.85 214.18-23.3L214.18-23.3 214.18-25.35ZM255.73 0L250.63 0 251.18-3.9 254.93-3.1Q255.33-3.05 255.53-2.78 255.73-2.5 255.73-2.05L255.73-2.05 255.73 0Z" opacity="1" transform="matrix(1,0,0,1,0,0)" fill="#552ed7" class="wordmark-text-0" data-fill-palette-color="primary" id="text-0"></path></svg></g></svg></g></svg></g></svg></g><g><svg viewBox="0 0 77.51155317072133 77.91684911755964" height="77.91684911755964" width="77.51155317072133"><g><svg xmlns="http://www.w3.org/2000/svg" data-name="Layer 1" viewBox="1.75 1.499963112414123 96.5 97.00458360424997" x="0" y="0" height="77.91684911755964" width="77.51155317072133" class="icon-icon-0" data-fill-palette-color="accent" id="icon-0"><path d="M87.5 31.7H77.21V13.7A12.22 12.22 0 0 0 65 1.5H14A12.22 12.22 0 0 0 1.75 13.71V55A12.22 12.22 0 0 0 14 67.19H20.13V81.19A2.5 2.5 0 0 0 24.4 82.96L40.1 67.19H43.1V73.77A10.76 10.76 0 0 0 53.8 84.52H66.14L79.41 97.77A2.5 2.5 0 0 0 83.68 96V84.52H87.5A10.76 10.76 0 0 0 98.25 73.77V42.45A10.76 10.76 0 0 0 87.5 31.7M39.06 62.19A2.5 2.5 0 0 0 37.29 62.92L25.09 75.11V64.69A2.5 2.5 0 0 0 22.59 62.19H14A7.21 7.21 0 0 1 6.75 55V13.71A7.21 7.21 0 0 1 14 6.5H65A7.21 7.21 0 0 1 72.21 13.71V55A7.21 7.21 0 0 1 65 62.19ZM93.25 73.77A5.75 5.75 0 0 1 87.5 79.52H81.18A2.5 2.5 0 0 0 78.68 82.02V90.02L68.94 80.3A2.5 2.5 0 0 0 67.17 79.57H53.8A5.75 5.75 0 0 1 48 73.77V67.19H65A12.22 12.22 0 0 0 77.21 55V36.7H87.5A5.75 5.75 0 0 1 93.25 42.45Z" fill="#552ed7" data-fill-palette-color="accent"></path><path d="M53.72 19.4H31.34V18.4A6 6 0 0 0 25.34 12.4H23.38A2.5 2.5 0 0 0 23.38 17.4H25.33A1 1 0 0 1 26.33 18.4V39A7.21 7.21 0 0 0 33.54 46.21H51.85A2.5 2.5 0 0 0 51.85 41.21H33.54A2.21 2.21 0 0 1 31.34 39V36.65H50.75A5.47 5.47 0 0 0 56.22 31.18V21.9A2.5 2.5 0 0 0 53.72 19.4M51.22 31.19A0.47 0.47 0 0 1 50.75 31.66H31.34V24.4H51.22Z" fill="#552ed7" data-fill-palette-color="accent"></path><circle cx="34.69" cy="52.53" r="2.9" fill="#552ed7" data-fill-palette-color="accent"></circle><circle cx="48.03" cy="52.53" r="2.9" fill="#552ed7" data-fill-palette-color="accent"></circle></svg></g></svg></g></svg></g><defs></defs></svg><rect width="395.52" height="62.9879278269501" fill="none" stroke="none" visibility="hidden"></rect></g></svg></g></svg>